<svg width="16" height="16" viewBox="0 0 16 16" fill="none" xmlns="http://www.w3.org/2000/svg">
<path d="M12 7.16671C11.7267 7.16671 11.5 6.94004 11.5 6.66671V5.33337C11.5 3.23337 10.9067 1.83337 8 1.83337C5.09333 1.83337 4.5 3.23337 4.5 5.33337V6.66671C4.5 6.94004 4.27333 7.16671 4 7.16671C3.72667 7.16671 3.5 6.94004 3.5 6.66671V5.33337C3.5 3.40004 3.96667 0.833374 8 0.833374C12.0333 0.833374 12.5 3.40004 12.5 5.33337V6.66671C12.5 6.94004 12.2733 7.16671 12 7.16671Z" fill="#9A9A9E"/>
<path d="M11.3333 15.1666H4.66659C1.72659 15.1666 0.833252 14.2733 0.833252 11.3333V9.99996C0.833252 7.05996 1.72659 6.16663 4.66659 6.16663H11.3333C14.2733 6.16663 15.1666 7.05996 15.1666 9.99996V11.3333C15.1666 14.2733 14.2733 15.1666 11.3333 15.1666ZM4.66659 7.16663C2.27992 7.16663 1.83325 7.61996 1.83325 9.99996V11.3333C1.83325 13.7133 2.27992 14.1666 4.66659 14.1666H11.3333C13.7199 14.1666 14.1666 13.7133 14.1666 11.3333V9.99996C14.1666 7.61996 13.7199 7.16663 11.3333 7.16663H4.66659Z" fill="#9A9A9E"/>
<path d="M5.33341 11.3333C5.24675 11.3333 5.16008 11.3133 5.08008 11.28C4.99341 11.2467 4.92675 11.2 4.86009 11.14C4.74009 11.0133 4.66675 10.8467 4.66675 10.6667C4.66675 10.58 4.68674 10.4933 4.72007 10.4133C4.75341 10.3267 4.80009 10.26 4.86009 10.1933C4.92675 10.1333 4.99341 10.0867 5.08008 10.0533C5.32008 9.94665 5.62008 10.0067 5.80674 10.1933C5.86674 10.26 5.91342 10.3333 5.94676 10.4133C5.98009 10.4933 6.00008 10.58 6.00008 10.6667C6.00008 10.84 5.92674 11.0133 5.80674 11.14C5.68008 11.26 5.50675 11.3333 5.33341 11.3333Z" fill="#9A9A9E"/>
<path d="M7.99992 11.3333C7.82659 11.3333 7.65326 11.26 7.52659 11.14C7.40659 11.0133 7.33325 10.8466 7.33325 10.6666C7.33325 10.58 7.34658 10.4933 7.38658 10.4133C7.41991 10.3333 7.46659 10.26 7.52659 10.1933C7.67992 10.04 7.91325 9.96664 8.12659 10.0133C8.17325 10.02 8.21326 10.0333 8.25326 10.0533C8.29326 10.0666 8.33325 10.0867 8.37325 10.1133C8.40658 10.1333 8.43991 10.1667 8.47325 10.1933C8.53325 10.26 8.57993 10.3333 8.61326 10.4133C8.64659 10.4933 8.66659 10.58 8.66659 10.6666C8.66659 10.8466 8.59325 11.0133 8.47325 11.14C8.43991 11.1666 8.40658 11.1933 8.37325 11.22C8.33325 11.2466 8.29326 11.2667 8.25326 11.28C8.21326 11.3 8.17325 11.3133 8.12659 11.32C8.08659 11.3267 8.03992 11.3333 7.99992 11.3333Z" fill="#9A9A9E"/>
<path d="M10.6667 11.3333C10.4867 11.3333 10.32 11.26 10.1933 11.14C10.1333 11.0733 10.0867 11 10.0533 10.92C10.02 10.84 10 10.7533 10 10.6666C10 10.4933 10.0733 10.32 10.1933 10.1933C10.2267 10.1667 10.26 10.14 10.2933 10.1133C10.3333 10.0867 10.3733 10.0666 10.4133 10.0533C10.4533 10.0333 10.4933 10.02 10.5333 10.0133C10.7533 9.96664 10.98 10.04 11.14 10.1933C11.26 10.32 11.3333 10.4866 11.3333 10.6666C11.3333 10.7533 11.3133 10.84 11.28 10.92C11.2467 11.0067 11.2 11.0733 11.14 11.14C11.0133 11.26 10.84 11.3333 10.6667 11.3333Z" fill="#9A9A9E"/>
</svg>
