<svg width="16" height="16" viewBox="0 0 16 16" fill="none" xmlns="http://www.w3.org/2000/svg">
<path d="M8.08007 9.01999C8.06674 9.01999 8.04674 9.01999 8.0334 9.01999C8.0134 9.01999 7.98673 9.01999 7.96673 9.01999C6.4534 8.97332 5.32007 7.79332 5.32007 6.33999C5.32007 4.85999 6.52674 3.65332 8.00674 3.65332C9.48674 3.65332 10.6934 4.85999 10.6934 6.33999C10.6867 7.79999 9.54673 8.97332 8.10007 9.01999C8.08673 9.01999 8.08674 9.01999 8.08007 9.01999ZM8.00007 4.64665C7.06674 4.64665 6.3134 5.40665 6.3134 6.33332C6.3134 7.24665 7.02673 7.98665 7.9334 8.01999C7.9534 8.01332 8.02007 8.01332 8.08674 8.01999C8.98007 7.97332 9.68007 7.23999 9.68674 6.33332C9.68674 5.40665 8.9334 4.64665 8.00007 4.64665Z" fill="#9A9A9E"/>
<path d="M7.99997 15.1666C6.20664 15.1666 4.49331 14.5 3.16664 13.2866C3.04664 13.18 2.99331 13.02 3.00664 12.8666C3.09331 12.0733 3.58664 11.3333 4.40664 10.7866C6.39331 9.46663 9.61331 9.46663 11.5933 10.7866C12.4133 11.34 12.9066 12.0733 12.9933 12.8666C13.0133 13.0266 12.9533 13.18 12.8333 13.2866C11.5066 14.5 9.79331 15.1666 7.99997 15.1666ZM4.05331 12.7333C5.15997 13.66 6.55331 14.1666 7.99997 14.1666C9.44664 14.1666 10.84 13.66 11.9466 12.7333C11.8266 12.3266 11.5066 11.9333 11.0333 11.6133C9.3933 10.52 6.61331 10.52 4.95997 11.6133C4.48664 11.9333 4.17331 12.3266 4.05331 12.7333Z" fill="#9A9A9E"/>
<path d="M7.99992 15.1667C4.04659 15.1667 0.833252 11.9534 0.833252 8.00004C0.833252 4.04671 4.04659 0.833374 7.99992 0.833374C11.9533 0.833374 15.1666 4.04671 15.1666 8.00004C15.1666 11.9534 11.9533 15.1667 7.99992 15.1667ZM7.99992 1.83337C4.59992 1.83337 1.83325 4.60004 1.83325 8.00004C1.83325 11.4 4.59992 14.1667 7.99992 14.1667C11.3999 14.1667 14.1666 11.4 14.1666 8.00004C14.1666 4.60004 11.3999 1.83337 7.99992 1.83337Z" fill="#9A9A9E"/>
</svg>
